<svg width="600" height="600" viewBox="0 0 600 600" fill="none" xmlns="http://www.w3.org/2000/svg">
  <rect width="600" height="600" fill="#F9F6F1"/>
  <defs>
    <linearGradient id="xTopL" x1="370" y1="110" x2="475" y2="248" gradientUnits="userSpaceOnUse">
      <stop offset="0%" stop-color="#D4620A"/>
      <stop offset="100%" stop-color="#8C3B08"/>
    </linearGradient>
    <linearGradient id="xBotL" x1="370" y1="490" x2="475" y2="352" gradientUnits="userSpaceOnUse">
      <stop offset="0%" stop-color="#E8823A"/>
      <stop offset="100%" stop-color="#D4620A"/>
    </linearGradient>
  </defs>
  <!-- C Letter -->
  <path d="M 264 110 A 190 190 0 1 0 264 490 L 264 388 A 88 88 0 1 1 264 212 Z" fill="#1C1917"/>
  <!-- X top arm -->
  <path d="M 344 110 L 424 110 L 570 282 L 490 282 Z" fill="url(#xTopL)"/>
  <!-- X bottom arm -->
  <path d="M 344 490 L 424 490 L 570 318 L 490 318 Z" fill="url(#xBotL)"/>
  <!-- Rounded caps -->
  <ellipse cx="348" cy="110" rx="42" ry="42" fill="url(#xTopL)"/>
  <ellipse cx="348" cy="490" rx="42" ry="42" fill="url(#xBotL)"/>
  <!-- Orbit dot on C -->
  <circle cx="264" cy="300" r="16" fill="#D4620A"/>
  <!-- Singularity spark -->
  <circle cx="566" cy="300" r="13" fill="#D4620A"/>
  <circle cx="566" cy="300" r="6" fill="#FFFFFF"/>
</svg>
